<svg width="255" height="62" viewBox="0 0 255 62" fill="none" xmlns="http://www.w3.org/2000/svg">
<rect x="0.282227" width="254" height="62" rx="10" fill="white"/>
<path d="M40.2057 47.6666C38.2502 47.6666 36.4693 47.3581 34.863 46.7412C33.2567 46.1243 31.8715 45.2513 30.7075 44.1222C29.5435 43.0048 28.6472 41.6836 28.0187 40.1588C27.3901 38.634 27.0758 36.9694 27.0758 35.1652C27.0758 32.8023 27.425 30.7595 28.1234 29.0368C28.8218 27.3141 29.7763 25.894 30.9869 24.7765C32.2091 23.6591 33.5942 22.8327 35.1423 22.2972C36.6905 21.7501 38.3084 21.4766 39.9962 21.4766C42.2195 21.4766 44.175 21.8083 45.8628 22.4718C47.5506 23.1353 48.959 24.049 50.0881 25.213C51.2288 26.3654 52.0844 27.6924 52.6547 29.1939C53.2251 30.6955 53.5103 32.2902 53.5103 33.978C53.5103 36.2943 53.0854 38.1043 52.2357 39.408C51.3976 40.7001 49.9368 41.3461 47.8532 41.3461C46.9453 41.3461 46.0548 41.1366 45.1818 40.7175C44.3088 40.2985 43.6977 39.6699 43.3485 38.8318H44.5358C44.0004 39.7863 43.3078 40.444 42.4581 40.8048C41.62 41.1657 40.7645 41.3461 39.8915 41.3461C38.5994 41.3461 37.4529 41.0667 36.4518 40.508C35.4624 39.9376 34.6826 39.1461 34.1122 38.1334C33.5418 37.1091 33.2567 35.9218 33.2567 34.5716C33.2567 33.1864 33.5535 31.9875 34.1471 30.9748C34.7524 29.9622 35.5614 29.1823 36.5741 28.6352C37.5867 28.0765 38.7158 27.7971 39.9613 27.7971C40.7179 27.7971 41.5094 27.9543 42.3359 28.2685C43.1739 28.5712 43.8258 28.9495 44.2914 29.4034L43.5581 30.4161V28.286H46.3866L46.3167 35.1652C46.3167 36.0732 46.4564 36.7134 46.7358 37.0858C47.0268 37.4583 47.3993 37.6446 47.8532 37.6446C48.4469 37.6446 48.8601 37.4816 49.0929 37.1557C49.3257 36.8181 49.4595 36.3758 49.4945 35.8287C49.541 35.27 49.5643 34.6531 49.5643 33.978C49.5643 32.1388 49.25 30.6431 48.6215 29.4907C48.0045 28.3384 47.213 27.4479 46.2469 26.8194C45.2808 26.1792 44.2681 25.7427 43.2089 25.5099C42.1613 25.2654 41.2068 25.1432 40.3454 25.1432C38.8322 25.1432 37.482 25.3702 36.2947 25.8241C35.1191 26.2665 34.1238 26.9183 33.309 27.7797C32.5059 28.6294 31.9064 29.6653 31.5107 30.8875C31.1149 32.0981 30.9403 33.4774 30.9869 35.0256C31.0451 36.4922 31.3011 37.7842 31.7551 38.9017C32.2091 40.0191 32.8434 40.9561 33.6582 41.7127C34.4847 42.4693 35.4624 43.0397 36.5915 43.4238C37.7206 43.8079 38.9835 44 40.3803 44C41.0089 44 41.6316 43.9476 42.2486 43.8429C42.8771 43.7381 43.4766 43.5926 44.0469 43.4064L45.2342 46.8984C44.4543 47.1544 43.6395 47.3465 42.7898 47.4745C41.9401 47.6026 41.0787 47.6666 40.2057 47.6666ZM40.1708 37.6446C40.9274 37.6446 41.5734 37.4292 42.1089 36.9985C42.656 36.5679 42.9295 35.7589 42.9295 34.5716C42.9295 33.5706 42.7083 32.8081 42.266 32.2843C41.8353 31.7605 41.1835 31.4986 40.3105 31.4986C39.2513 31.4986 38.4656 31.778 37.9534 32.3367C37.4529 32.8954 37.2026 33.6404 37.2026 34.5716C37.2026 35.5144 37.4587 36.2652 37.9709 36.8239C38.483 37.371 39.2163 37.6446 40.1708 37.6446ZM69.5383 44.5238C67.024 44.5238 64.8532 43.9767 63.0257 42.8826C61.2099 41.7884 59.8072 40.2577 58.8178 38.2906C57.8401 36.3234 57.3512 34.0362 57.3512 31.4288C57.3512 28.8214 57.8401 26.5342 58.8178 24.567C59.8072 22.5999 61.2099 21.0692 63.0257 19.975C64.8532 18.8809 67.024 18.3338 69.5383 18.3338C72.425 18.3338 74.8461 19.0497 76.8016 20.4814C78.7688 21.9131 80.154 23.8512 80.9571 26.2956L76.1731 27.6225C75.7075 26.0977 74.9218 24.9162 73.816 24.0781C72.7102 23.2284 71.2843 22.8036 69.5383 22.8036C67.9436 22.8036 66.6108 23.1586 65.5399 23.8686C64.4807 24.5787 63.6834 25.5797 63.1479 26.8717C62.6125 28.1638 62.3448 29.6828 62.3448 31.4288C62.3448 33.1748 62.6125 34.6938 63.1479 35.9859C63.6834 37.2779 64.4807 38.2789 65.5399 38.989C66.6108 39.699 67.9436 40.054 69.5383 40.054C71.2843 40.054 72.7102 39.6292 73.816 38.7795C74.9218 37.9297 75.7075 36.7483 76.1731 35.2351L80.9571 36.562C80.154 39.0064 78.7688 40.9445 76.8016 42.3762C74.8461 43.8079 72.425 44.5238 69.5383 44.5238ZM93.2871 44.5238C91.3898 44.5238 89.7253 44.0989 88.2936 43.2492C86.8619 42.3995 85.7444 41.2297 84.9413 39.7398C84.1497 38.2382 83.754 36.5155 83.754 34.5716C83.754 32.6044 84.1614 30.8759 84.9762 29.386C85.791 27.8844 86.9142 26.7146 88.346 25.8765C89.7777 25.0384 91.4247 24.6194 93.2871 24.6194C95.1845 24.6194 96.849 25.0443 98.2807 25.894C99.7241 26.7437 100.847 27.9193 101.65 29.4209C102.454 30.9108 102.855 32.6277 102.855 34.5716C102.855 36.5271 102.448 38.2557 101.633 39.7572C100.83 41.2471 99.7066 42.417 98.2632 43.2667C96.8315 44.1048 95.1728 44.5238 93.2871 44.5238ZM93.2871 40.089C94.812 40.089 95.9469 39.5768 96.6918 38.5525C97.4484 37.5165 97.8267 36.1896 97.8267 34.5716C97.8267 32.8954 97.4426 31.5568 96.6744 30.5558C95.9178 29.5548 94.7887 29.0542 93.2871 29.0542C92.2512 29.0542 91.4015 29.287 90.738 29.7526C90.0745 30.2182 89.5798 30.8643 89.2539 31.6907C88.9396 32.5171 88.7825 33.4774 88.7825 34.5716C88.7825 36.2594 89.1608 37.6038 89.9174 38.6049C90.6856 39.5943 91.8089 40.089 93.2871 40.089ZM115.949 44.5238C114.075 44.5238 112.509 44.0873 111.252 43.2143C109.995 42.3413 109.046 41.154 108.406 39.6525C107.777 38.1509 107.463 36.4573 107.463 34.5716C107.463 32.6859 107.777 30.9923 108.406 29.4907C109.034 27.9892 109.96 26.8019 111.182 25.9289C112.404 25.0559 113.912 24.6194 115.704 24.6194C117.508 24.6194 119.08 25.0501 120.418 25.9114C121.757 26.7728 122.793 27.9543 123.526 29.4558C124.271 30.9457 124.644 32.651 124.644 34.5716C124.644 36.4573 124.277 38.1509 123.544 39.6525C122.822 41.154 121.809 42.3413 120.506 43.2143C119.202 44.0873 117.683 44.5238 115.949 44.5238ZM106.66 52.3808V25.1432H110.85V38.0636H111.444V52.3808H106.66ZM115.18 40.2985C116.205 40.2985 117.043 40.0424 117.695 39.5302C118.346 39.0181 118.829 38.3313 119.144 37.47C119.458 36.597 119.615 35.6308 119.615 34.5716C119.615 33.524 119.452 32.5695 119.126 31.7082C118.8 30.8352 118.294 30.1426 117.607 29.6304C116.932 29.1066 116.065 28.8447 115.006 28.8447C114.016 28.8447 113.213 29.0833 112.596 29.5606C111.991 30.0378 111.549 30.7071 111.269 31.5685C110.99 32.4298 110.85 33.4309 110.85 34.5716C110.85 35.7123 110.99 36.7134 111.269 37.5747C111.549 38.4361 112.003 39.1054 112.631 39.5826C113.271 40.0599 114.121 40.2985 115.18 40.2985ZM130.213 52.3808L133.845 42.3937L133.915 45.327L125.708 25.1432H130.632L136.15 39.4255H135.032L140.515 25.1432H145.264L134.613 52.3808H130.213ZM147.719 44V25.1432H151.909V29.7526L151.455 29.159C151.7 28.5072 152.026 27.9135 152.433 27.3781C152.841 26.8426 153.341 26.4003 153.935 26.0511C154.389 25.7718 154.883 25.5564 155.419 25.4051C155.954 25.2421 156.507 25.1432 157.078 25.1083C157.648 25.0617 158.218 25.0734 158.789 25.1432V29.578C158.265 29.4151 157.654 29.3627 156.955 29.4209C156.269 29.4675 155.646 29.6246 155.087 29.8923C154.528 30.1484 154.057 30.4918 153.673 30.9225C153.289 31.3415 152.998 31.842 152.8 32.424C152.602 32.9944 152.503 33.6404 152.503 34.3621V44H147.719ZM162.459 22.5242V18.3338H167.208V22.5242H162.459ZM162.459 44V25.1432H167.208V44H162.459ZM180.509 52.9046C179.438 52.9046 178.42 52.73 177.454 52.3808C176.487 52.0432 175.62 51.566 174.852 50.9491C174.095 50.3438 173.479 49.6338 173.001 48.819L177.401 46.6888C177.704 47.2476 178.135 47.6724 178.693 47.9634C179.264 48.2544 179.881 48.3999 180.544 48.3999C181.254 48.3999 181.923 48.2777 182.552 48.0333C183.18 47.8005 183.681 47.4454 184.053 46.9682C184.438 46.5026 184.618 45.9206 184.595 45.2222V39.7398H185.188V25.1432H189.344V45.292C189.344 45.7576 189.321 46.1941 189.274 46.6015C189.239 47.0206 189.169 47.4338 189.065 47.8412C188.762 48.9936 188.197 49.9422 187.371 50.6872C186.556 51.4321 185.555 51.985 184.368 52.3459C183.18 52.7184 181.894 52.9046 180.509 52.9046ZM180.09 44.5238C178.356 44.5238 176.837 44.0873 175.533 43.2143C174.229 42.3413 173.211 41.154 172.478 39.6525C171.756 38.1509 171.395 36.4573 171.395 34.5716C171.395 32.651 171.762 30.9457 172.495 29.4558C173.24 27.9543 174.282 26.7728 175.62 25.9114C176.959 25.0501 178.53 24.6194 180.335 24.6194C182.127 24.6194 183.634 25.0559 184.857 25.9289C186.079 26.8019 187.004 27.9892 187.633 29.4907C188.261 30.9923 188.576 32.6859 188.576 34.5716C188.576 36.4573 188.256 38.1509 187.615 39.6525C186.987 41.154 186.044 42.3413 184.787 43.2143C183.53 44.0873 181.964 44.5238 180.09 44.5238ZM180.858 40.2985C181.918 40.2985 182.761 40.0599 183.39 39.5826C184.03 39.1054 184.49 38.4361 184.769 37.5747C185.049 36.7134 185.188 35.7123 185.188 34.5716C185.188 33.4309 185.049 32.4298 184.769 31.5685C184.49 30.7071 184.042 30.0378 183.425 29.5606C182.82 29.0833 182.022 28.8447 181.033 28.8447C179.974 28.8447 179.101 29.1066 178.414 29.6304C177.739 30.1426 177.238 30.8352 176.912 31.7082C176.586 32.5695 176.423 33.524 176.423 34.5716C176.423 35.6308 176.581 36.597 176.895 37.47C177.209 38.3313 177.692 39.0181 178.344 39.5302C178.996 40.0424 179.834 40.2985 180.858 40.2985ZM207.084 44V35.0954C207.084 34.6647 207.061 34.1176 207.014 33.4542C206.968 32.779 206.822 32.1039 206.578 31.4288C206.333 30.7537 205.932 30.1891 205.373 29.7352C204.826 29.2812 204.046 29.0542 203.033 29.0542C202.626 29.0542 202.189 29.1183 201.724 29.2463C201.258 29.3743 200.822 29.6246 200.414 29.9971C200.007 30.3579 199.669 30.8934 199.402 31.6034C199.146 32.3134 199.018 33.2563 199.018 34.4319L196.294 33.1399C196.294 31.65 196.596 30.2532 197.202 28.9495C197.807 27.6458 198.715 26.5924 199.925 25.7892C201.148 24.9861 202.684 24.5845 204.535 24.5845C206.013 24.5845 207.218 24.8347 208.149 25.3353C209.08 25.8358 209.802 26.4702 210.314 27.2384C210.838 28.0066 211.21 28.8098 211.432 29.6479C211.653 30.4743 211.787 31.2309 211.833 31.9177C211.88 32.6044 211.903 33.105 211.903 33.4192V44H207.084ZM194.199 44V18.8576H198.424V31.778H199.018V44H194.199ZM227.748 44C226.444 44.2444 225.164 44.3492 223.906 44.3143C222.661 44.291 221.544 44.0757 220.554 43.6683C219.576 43.2492 218.831 42.5799 218.319 41.6604C217.854 40.799 217.609 39.926 217.586 39.0414C217.563 38.1451 217.551 37.1324 217.551 36.0033V19.9052H222.3V35.724C222.3 36.4573 222.306 37.1208 222.318 37.7144C222.341 38.2964 222.463 38.762 222.684 39.1112C223.103 39.7747 223.773 40.1355 224.692 40.1937C225.612 40.2519 226.63 40.2054 227.748 40.054V44ZM214.338 28.8098V25.1432H227.748V28.8098H214.338Z" fill="black"/>
</svg>
