<svg width="795" height="82" viewBox="0 0 795 82" fill="none" xmlns="http://www.w3.org/2000/svg">
<g id="Group 5">
<g id="Frame 1">
<rect y="1" width="363.041" height="81" rx="10" fill="#FFE500"/>
<g id="bx:user">
<path id="Vector" d="M62.0205 58.5H62.5205V58V56.1667C62.5205 52.6304 61.1157 49.2391 58.6153 46.7386C56.1148 44.2381 52.7234 42.8333 49.1872 42.8333H41.8538C38.3176 42.8333 34.9262 44.2381 32.4258 46.7386C29.9253 49.2391 28.5205 52.6304 28.5205 56.1667V58V58.5H29.0205H32.6872H33.1872V58V56.1667C33.1872 53.8681 34.1003 51.6637 35.7256 50.0384C37.3509 48.4131 39.5553 47.5 41.8538 47.5H49.1872C51.4857 47.5 53.6901 48.4131 55.3154 50.0384C56.9408 51.6637 57.8538 53.8681 57.8538 56.1667V58V58.5H58.3538H62.0205ZM45.5205 22.6667C43.6086 22.6667 41.7397 23.2336 40.15 24.2958C38.5603 25.358 37.3213 26.8677 36.5897 28.634C35.858 30.4004 35.6666 32.344 36.0396 34.2192C36.4126 36.0943 37.3332 37.8168 38.6851 39.1687C40.037 40.5206 41.7595 41.4413 43.6346 41.8142C45.5098 42.1872 47.4534 41.9958 49.2198 41.2642C50.9861 40.5325 52.4959 39.2935 53.5581 37.7038C54.6202 36.1142 55.1872 34.2452 55.1872 32.3333C55.1872 29.7696 54.1687 27.3108 52.3559 25.498C50.543 23.6851 48.0843 22.6667 45.5205 22.6667ZM45.5205 37.3333C44.5316 37.3333 43.5649 37.0401 42.7427 36.4907C41.9204 35.9413 41.2795 35.1604 40.9011 34.2467C40.5227 33.3331 40.4237 32.3278 40.6166 31.3579C40.8095 30.388 41.2857 29.4971 41.985 28.7978C42.6842 28.0985 43.5752 27.6223 44.5451 27.4294C45.515 27.2365 46.5203 27.3355 47.4339 27.7139C48.3476 28.0924 49.1284 28.7332 49.6779 29.5555C50.2273 30.3777 50.5205 31.3444 50.5205 32.3333C50.5205 33.6594 49.9937 34.9312 49.056 35.8689C48.1184 36.8065 46.8466 37.3333 45.5205 37.3333Z" fill="black" stroke="black"/>
</g>
<path id="SosialMedia" d="M98.1444 58.6414C95.8639 58.6414 93.8043 58.2423 91.9656 57.4441C90.1412 56.6317 88.6375 55.4772 87.4544 53.9806C86.2857 52.4697 85.5445 50.6738 85.2309 48.5928L91.3028 47.6948C91.7304 49.4623 92.6141 50.8234 93.9539 51.7784C95.2938 52.7334 96.8189 53.2109 98.5293 53.2109C99.4842 53.2109 100.411 53.0612 101.309 52.7619C102.207 52.4626 102.941 52.0207 103.511 51.4363C104.095 50.852 104.387 50.1322 104.387 49.277C104.387 48.9634 104.338 48.6641 104.238 48.379C104.152 48.0797 104.003 47.8017 103.789 47.5452C103.575 47.2886 103.269 47.0463 102.869 46.8183C102.485 46.5902 101.993 46.3835 101.394 46.1982L93.3981 43.8464C92.7994 43.6754 92.101 43.4331 91.3028 43.1195C90.5189 42.8059 89.7563 42.357 89.0152 41.7726C88.274 41.1882 87.654 40.4185 87.1551 39.4635C86.6705 38.4943 86.4282 37.2757 86.4282 35.8076C86.4282 33.7408 86.9484 32.0233 87.9889 30.655C89.0294 29.2867 90.4191 28.2675 92.158 27.5976C93.8969 26.9277 95.8211 26.5999 97.9306 26.6142C100.054 26.6427 101.95 27.0061 103.618 27.7045C105.285 28.403 106.682 29.4221 107.808 30.7619C108.934 32.0874 109.747 33.7123 110.246 35.6365L103.96 36.7055C103.732 35.7078 103.311 34.8668 102.698 34.1827C102.085 33.4985 101.351 32.9783 100.496 32.6219C99.6553 32.2656 98.7716 32.0732 97.8451 32.0447C96.9329 32.0162 96.0706 32.1445 95.2581 32.4295C94.4599 32.7003 93.8043 33.0994 93.2912 33.6268C92.7923 34.1542 92.5429 34.7813 92.5429 35.5082C92.5429 36.1781 92.7495 36.7269 93.1629 37.1545C93.5762 37.5678 94.0965 37.9028 94.7236 38.1594C95.3508 38.4159 95.9922 38.6297 96.6478 38.8008L101.993 40.2546C102.791 40.4684 103.675 40.7535 104.644 41.1098C105.613 41.4519 106.54 41.9365 107.423 42.5636C108.321 43.1765 109.055 43.989 109.625 45.001C110.21 46.0129 110.502 47.2957 110.502 48.8494C110.502 50.5027 110.153 51.9495 109.454 53.1895C108.77 54.4153 107.844 55.4344 106.675 56.2468C105.506 57.045 104.181 57.6437 102.698 58.0428C101.23 58.4419 99.7123 58.6414 98.1444 58.6414ZM125.592 58.6414C123.269 58.6414 121.23 58.1212 119.477 57.0807C117.724 56.0402 116.356 54.6077 115.372 52.7833C114.403 50.9446 113.919 48.8351 113.919 46.4548C113.919 44.046 114.417 41.9294 115.415 40.1049C116.413 38.2663 117.788 36.8338 119.541 35.8076C121.295 34.7813 123.311 34.2682 125.592 34.2682C127.915 34.2682 129.954 34.7884 131.707 35.8289C133.474 36.8694 134.85 38.309 135.833 40.1477C136.817 41.9721 137.308 44.0745 137.308 46.4548C137.308 48.8494 136.809 50.966 135.812 52.8047C134.828 54.6291 133.453 56.0615 131.685 57.102C129.932 58.1283 127.901 58.6414 125.592 58.6414ZM125.592 53.2109C127.459 53.2109 128.849 52.5837 129.761 51.3294C130.688 50.0609 131.151 48.436 131.151 46.4548C131.151 44.4023 130.68 42.7632 129.74 41.5374C128.813 40.3116 127.431 39.6987 125.592 39.6987C124.323 39.6987 123.283 39.9838 122.471 40.5539C121.658 41.1241 121.052 41.9151 120.653 42.9271C120.268 43.9391 120.076 45.115 120.076 46.4548C120.076 48.5215 120.539 50.1678 121.466 51.3936C122.406 52.6051 123.782 53.2109 125.592 53.2109ZM150.406 58.6414C147.498 58.6414 145.146 57.9857 143.35 56.6744C141.569 55.3489 140.486 53.4817 140.101 51.0729L146.044 50.1749C146.287 51.2582 146.821 52.1062 147.648 52.7191C148.489 53.332 149.551 53.6385 150.833 53.6385C151.888 53.6385 152.701 53.4389 153.271 53.0398C153.841 52.6265 154.126 52.0564 154.126 51.3294C154.126 50.8733 154.012 50.5099 153.784 50.2391C153.556 49.954 153.043 49.6761 152.245 49.4052C151.461 49.1344 150.235 48.7781 148.567 48.3362C146.686 47.8516 145.182 47.31 144.056 46.7114C142.93 46.1127 142.118 45.4001 141.619 44.5734C141.12 43.7324 140.87 42.7204 140.87 41.5374C140.87 40.0551 141.248 38.7723 142.003 37.689C142.759 36.5915 143.821 35.7505 145.189 35.1662C146.572 34.5675 148.197 34.2682 150.064 34.2682C151.874 34.2682 153.477 34.5461 154.874 35.102C156.271 35.6579 157.397 36.449 158.252 37.4752C159.122 38.5014 159.656 39.713 159.856 41.1098L153.912 42.1788C153.812 41.3236 153.442 40.6466 152.8 40.1477C152.159 39.6488 151.29 39.3566 150.192 39.2711C149.123 39.1999 148.261 39.3424 147.605 39.6987C146.964 40.0551 146.643 40.5682 146.643 41.2381C146.643 41.6372 146.778 41.9721 147.049 42.2429C147.334 42.5138 147.912 42.7917 148.781 43.0768C149.665 43.3618 151.004 43.7324 152.8 44.1885C154.554 44.6446 155.958 45.1791 157.012 45.792C158.081 46.3907 158.858 47.1176 159.343 47.9728C159.827 48.8137 160.07 49.8328 160.07 51.0301C160.07 53.3962 159.214 55.2562 157.504 56.6103C155.794 57.9644 153.428 58.6414 150.406 58.6414ZM165.195 31.7026V26.5714H171.011V31.7026H165.195ZM165.195 58V34.9096H171.011V58H165.195ZM183.834 58.6414C182.181 58.6414 180.777 58.3278 179.623 57.7007C178.482 57.0593 177.613 56.2112 177.014 55.1565C176.43 54.0875 176.138 52.9116 176.138 51.6288C176.138 50.5598 176.302 49.5834 176.629 48.6997C176.957 47.816 177.485 47.0392 178.212 46.3693C178.953 45.6851 179.943 45.115 181.183 44.6589C182.039 44.3453 183.058 44.0674 184.241 43.8251C185.424 43.5828 186.764 43.3547 188.26 43.1409C189.757 42.9128 191.403 42.6634 193.199 42.3926L191.104 43.5471C191.104 42.1788 190.776 41.1739 190.12 40.5325C189.465 39.8911 188.367 39.5704 186.828 39.5704C185.972 39.5704 185.082 39.7771 184.155 40.1905C183.229 40.6038 182.58 41.3379 182.21 42.3926L176.95 40.725C177.534 38.815 178.632 37.2614 180.243 36.0641C181.853 34.8668 184.048 34.2682 186.828 34.2682C188.866 34.2682 190.676 34.5818 192.258 35.2089C193.84 35.8361 195.038 36.9193 195.85 38.4587C196.306 39.3139 196.577 40.1691 196.662 41.0243C196.748 41.8795 196.791 42.8345 196.791 43.8892V58H191.702V53.2536L192.429 54.2371C191.303 55.7907 190.085 56.9167 188.773 57.6152C187.476 58.2993 185.83 58.6414 183.834 58.6414ZM185.075 54.0661C186.144 54.0661 187.041 53.8808 187.768 53.5102C188.51 53.1254 189.094 52.6906 189.522 52.206C189.963 51.7214 190.263 51.3152 190.42 50.9874C190.719 50.3602 190.89 49.6333 190.933 48.8066C190.99 47.9657 191.018 47.2672 191.018 46.7114L192.729 47.139C191.004 47.424 189.607 47.6663 188.538 47.8659C187.469 48.0512 186.607 48.2222 185.951 48.379C185.295 48.5358 184.718 48.7068 184.219 48.8921C183.649 49.1202 183.186 49.3696 182.83 49.6404C182.488 49.897 182.231 50.182 182.06 50.4956C181.903 50.8092 181.825 51.1584 181.825 51.5432C181.825 52.0706 181.953 52.5267 182.21 52.9116C182.48 53.2821 182.858 53.5672 183.343 53.7668C183.827 53.9663 184.405 54.0661 185.075 54.0661ZM202.777 58V26.5714H208.593V58H202.777ZM215.002 58V27.2128H220.219L230.396 47.6521L240.573 27.2128H245.79V58H240.359V39.6132L231.422 58H229.37L220.433 39.6132V58H215.002ZM262.524 58.6414C260.158 58.6414 258.07 58.1354 256.26 57.1234C254.464 56.0972 253.053 54.6932 252.026 52.9116C251.014 51.1156 250.508 49.0632 250.508 46.7541C250.508 44.2313 251.007 42.0363 252.005 40.1691C253.003 38.3019 254.378 36.8552 256.131 35.8289C257.884 34.7884 259.901 34.2682 262.182 34.2682C264.605 34.2682 266.664 34.8383 268.361 35.9786C270.057 37.1189 271.311 38.7224 272.124 40.7891C272.936 42.8558 273.221 45.286 272.979 48.0797H267.227V45.9417C267.227 43.5899 266.85 41.9009 266.094 40.8746C265.353 39.8341 264.135 39.3139 262.438 39.3139C260.457 39.3139 258.996 39.9196 258.055 41.1312C257.129 42.3285 256.666 44.103 256.666 46.4548C256.666 48.6071 257.129 50.2747 258.055 51.4577C258.996 52.6265 260.372 53.2109 262.182 53.2109C263.322 53.2109 264.298 52.9614 265.111 52.4626C265.923 51.9637 266.543 51.2439 266.971 50.3032L272.786 51.9708C271.917 54.0803 270.541 55.7195 268.66 56.8882C266.793 58.057 264.747 58.6414 262.524 58.6414ZM254.87 48.0797V43.7609H270.178V48.0797H254.87ZM287.171 58.6414C285.047 58.6414 283.187 58.1069 281.59 57.0379C279.994 55.9689 278.747 54.5151 277.849 52.6764C276.965 50.8377 276.523 48.7638 276.523 46.4548C276.523 44.103 276.972 42.0149 277.87 40.1905C278.783 38.3518 280.058 36.9051 281.697 35.8503C283.337 34.7956 285.261 34.2682 287.47 34.2682C289.665 34.2682 291.511 34.8027 293.007 35.8717C294.504 36.9407 295.637 38.3945 296.407 40.2332C297.177 42.0719 297.561 44.1458 297.561 46.4548C297.561 48.7638 297.169 50.8377 296.385 52.6764C295.616 54.5151 294.461 55.9689 292.922 57.0379C291.383 58.1069 289.465 58.6414 287.171 58.6414ZM288.111 53.4674C289.408 53.4674 290.442 53.1752 291.211 52.5909C291.995 52.0065 292.558 51.1869 292.901 50.1322C293.243 49.0774 293.414 47.8516 293.414 46.4548C293.414 45.058 293.243 43.8322 292.901 42.7774C292.558 41.7227 292.01 40.9031 291.254 40.3187C290.513 39.7344 289.537 39.4422 288.325 39.4422C287.028 39.4422 285.959 39.7629 285.118 40.4043C284.292 41.0314 283.679 41.8795 283.28 42.9485C282.88 44.0032 282.681 45.172 282.681 46.4548C282.681 47.7519 282.873 48.9349 283.258 50.0039C283.643 51.0586 284.234 51.8996 285.033 52.5267C285.831 53.1539 286.857 53.4674 288.111 53.4674ZM293.414 58V42.1788H292.687V27.2128H298.545V58H293.414ZM304.959 31.7026V26.5714H310.774V31.7026H304.959ZM304.959 58V34.9096H310.774V58H304.959ZM323.598 58.6414C321.944 58.6414 320.541 58.3278 319.386 57.7007C318.246 57.0593 317.376 56.2112 316.778 55.1565C316.193 54.0875 315.901 52.9116 315.901 51.6288C315.901 50.5598 316.065 49.5834 316.393 48.6997C316.721 47.816 317.248 47.0392 317.975 46.3693C318.716 45.6851 319.707 45.115 320.947 44.6589C321.802 44.3453 322.821 44.0674 324.004 43.8251C325.187 43.5828 326.527 43.3547 328.024 43.1409C329.52 42.9128 331.166 42.6634 332.962 42.3926L330.867 43.5471C330.867 42.1788 330.539 41.1739 329.884 40.5325C329.228 39.8911 328.13 39.5704 326.591 39.5704C325.736 39.5704 324.845 39.7771 323.919 40.1905C322.992 40.6038 322.344 41.3379 321.973 42.3926L316.713 40.725C317.298 38.815 318.395 37.2614 320.006 36.0641C321.617 34.8668 323.812 34.2682 326.591 34.2682C328.629 34.2682 330.439 34.5818 332.022 35.2089C333.604 35.8361 334.801 36.9193 335.613 38.4587C336.07 39.3139 336.34 40.1691 336.426 41.0243C336.511 41.8795 336.554 42.8345 336.554 43.8892V58H331.466V53.2536L332.193 54.2371C331.067 55.7907 329.848 56.9167 328.537 57.6152C327.24 58.2993 325.593 58.6414 323.598 58.6414ZM324.838 54.0661C325.907 54.0661 326.805 53.8808 327.532 53.5102C328.273 53.1254 328.857 52.6906 329.285 52.206C329.727 51.7214 330.026 51.3152 330.183 50.9874C330.482 50.3602 330.653 49.6333 330.696 48.8066C330.753 47.9657 330.782 47.2672 330.782 46.7114L332.492 47.139C330.767 47.424 329.37 47.6663 328.301 47.8659C327.232 48.0512 326.37 48.2222 325.714 48.379C325.059 48.5358 324.482 48.7068 323.983 48.8921C323.413 49.1202 322.949 49.3696 322.593 49.6404C322.251 49.897 321.994 50.182 321.823 50.4956C321.667 50.8092 321.588 51.1584 321.588 51.5432C321.588 52.0706 321.716 52.5267 321.973 52.9116C322.244 53.2821 322.622 53.5672 323.106 53.7668C323.591 53.9663 324.168 54.0661 324.838 54.0661Z" fill="black"/>
</g>
<g id="Frame 2">
<rect x="350.094" width="444.623" height="81" rx="10" fill="black"/>
<path id="XII DKV 1" d="M483.834 57L494.182 41.4354L484.133 26.2128H491.274L497.816 36.4752L504.273 26.2128H511.457L501.408 41.4354L511.713 57H504.572L497.816 46.3955L491.017 57H483.834ZM515.556 57V26.2128H521.372V57H515.556ZM528.209 57V26.2128H534.024V57H528.209ZM548.994 57V26.2128H558.957C559.2 26.2128 559.698 26.2199 560.454 26.2342C561.209 26.2484 561.936 26.2983 562.635 26.3838C565.115 26.6832 567.217 27.5455 568.942 28.9708C570.666 30.3962 571.978 32.2063 572.876 34.4013C573.774 36.5964 574.223 38.998 574.223 41.6064C574.223 44.2148 573.774 46.6164 572.876 48.8115C571.978 51.0065 570.666 52.8166 568.942 54.242C567.217 55.6673 565.115 56.5296 562.635 56.829C561.936 56.9145 561.209 56.9644 560.454 56.9786C559.698 56.9929 559.2 57 558.957 57H548.994ZM554.895 51.5267H558.957C559.342 51.5267 559.862 51.5196 560.518 51.5053C561.174 51.4768 561.765 51.4127 562.293 51.3129C563.632 51.0421 564.723 50.415 565.564 49.4315C566.419 48.448 567.046 47.265 567.445 45.8824C567.858 44.4998 568.065 43.0745 568.065 41.6064C568.065 40.067 567.851 38.6061 567.424 37.2235C567.01 35.8409 566.376 34.6722 565.521 33.7172C564.666 32.7622 563.59 32.1564 562.293 31.8999C561.765 31.7859 561.174 31.7217 560.518 31.7075C559.862 31.6932 559.342 31.6861 558.957 31.6861H554.895V51.5267ZM579.352 57V26.2128H585.167V40.4091L596.884 26.2128H603.982L591.111 41.3926L604.794 57H597.44L585.167 42.9747V57H579.352ZM614.417 57L605.01 26.2128H610.996L618.693 51.5267L626.518 26.2128H632.504L623.097 57H614.417ZM649.63 57V32.5413L643.858 36.0904V29.6764L649.63 26.2128H655.574V57H649.63Z" fill="white"/>
</g>
</g>
</svg>
